<svg xmlns="http://www.w3.org/2000/svg" viewBox="0 0 128 128" role="img" aria-labelledby="title desc">
  <title id="title">mw2019 logo</title>
  <desc id="desc">Rounded square logo with 19 mark</desc>
  <defs>
    <linearGradient id="bg" x1="0" y1="0" x2="1" y2="1">
      <stop offset="0" stop-color="#0b1f45"/>
      <stop offset="1" stop-color="#08152e"/>
    </linearGradient>
    <linearGradient id="ink" x1="0" y1="0" x2="1" y2="1">
      <stop offset="0" stop-color="#7fe8ff"/>
      <stop offset="1" stop-color="#6da7ff"/>
    </linearGradient>
  </defs>
  <rect x="6" y="6" width="116" height="116" rx="28" fill="url(#bg)"/>
  <rect x="12" y="12" width="104" height="104" rx="22" fill="none" stroke="#234f8c" stroke-opacity=".65"/>
  <path d="M40 89V52h-9v-8h19v45z" fill="url(#ink)"/>
  <path d="M84 89c-13 0-22-8-22-21 0-11 8-20 20-20 10 0 19 8 19 20v21H91V79h-.3c-2 6-7 10-13 10zm2-32c-6 0-10 4-10 11 0 7 4 12 10 12 6 0 10-5 10-12s-4-11-10-11z" fill="url(#ink)"/>
</svg>
